<svg xmlns="http://www.w3.org/2000/svg" viewBox="0 0 450 131.14">
  <defs>
    <style>
      .cls-1 {
        fill: #1e293b;
      }

      .cls-2 {
        fill: #444;
        fill: #1e293b;
      }

      :root.dark .cls2 {
        fill: #fff;
      }
    </style>
  </defs>
  <g id="Layer_2" data-name="Layer 2">
    <g id="Layer_1-2" data-name="Layer 1">
      <g>
        <path class="cls-1" d="M306.93,38.25h-7.07a59.25,59.25,0,0,0-105.13,0h-7.06a65.61,65.61,0,0,1,119.26,0Z"/>
        <path class="cls-1" d="M305.37,96a65.58,65.58,0,0,1-116.14,0h7.27a59.23,59.23,0,0,0,101.6,0Z"/>
        <g>
          <path class="cls-2" d="M248,11.19v8.26a.74.74,0,1,0,1.48,0V11.19a.74.74,0,1,0-1.48,0"/>
          <path class="cls-2" d="M246.56,111.05v8.26a.74.74,0,1,0,1.47,0v-8.26a.74.74,0,1,0-1.47,0"/>
          <path class="cls-2" d="M285.53,103.17l-5.85-5.84a.74.74,0,1,0-1,1l5.84,5.84a.74.74,0,1,0,1-1"/>
          <path class="cls-2" d="M216,33.6l-5.84-5.84a.74.74,0,0,0-1,1l5.84,5.84a.74.74,0,1,0,1-1"/>
          <path class="cls-2" d="M210.11,104.21,216,98.37a.74.74,0,1,0-1-1l-5.84,5.84a.74.74,0,0,0,1,1"/>
          <path class="cls-2" d="M279.68,34.64l5.85-5.84a.74.74,0,0,0-1-1l-5.84,5.84a.74.74,0,1,0,1,1"/>
          <path class="cls-2" d="M228,115.7l3.09-7.66a.73.73,0,1,0-1.36-.55l-3.1,7.66a.74.74,0,0,0,1.37.55"/>
          <path class="cls-2" d="M266.34,23l3.09-7.66a.73.73,0,1,0-1.36-.55L265,22.46a.74.74,0,0,0,1.37.55"/>
          <path class="cls-2" d="M227.26,15.71l3.23,7.61a.73.73,0,1,0,1.35-.58l-3.22-7.6a.74.74,0,0,0-1.36.57"/>
          <path class="cls-2" d="M264.22,107.76l3.23,7.6a.74.74,0,0,0,1.36-.57l-3.23-7.61a.74.74,0,1,0-1.36.58"/>
        </g>
        <path class="cls-2" d="M33.6,77.49c0,8.37-5.67,14-16.27,14H0V44.69H17.65c7.71,0,12.92,4.87,12.92,11.33a10.16,10.16,0,0,1-5.8,9.29C29.12,66.56,33.6,70.25,33.6,77.49ZM10.41,53.78v8.69h5.2c3.36,0,4.94-1.84,4.94-4.41,0-2.77-1.78-4.28-5.14-4.28ZM23.25,76.44c0-3.49-2-5.93-6.72-5.93H10.41V82.37h6.26C21.21,82.37,23.25,80.06,23.25,76.44Z"/>
        <path class="cls-2" d="M37.48,68.07c0-14.29,11-24,24.24-24S86,53.78,86,68.07,74.9,92.12,61.72,92.12,37.48,82.37,37.48,68.07Zm37.75,0c0-8.63-6.13-14.16-13.51-14.16s-13.5,5.53-13.5,14.16,6.13,14.16,13.5,14.16S75.23,76.7,75.23,68.07Z"/>
        <path class="cls-2" d="M90.18,68.07c0-14.29,11-24,24.24-24s24.24,9.75,24.24,24S127.6,92.12,114.42,92.12,90.18,82.37,90.18,68.07Zm37.75,0c0-8.63-6.13-14.16-13.51-14.16s-13.5,5.53-13.5,14.16,6.13,14.16,13.5,14.16S127.93,76.7,127.93,68.07Z"/>
        <path class="cls-2" d="M158.49,73.34l-3.88,4.81V91.46H144.2V44.69h10.41V64.38l15.81-19.69H182L164.62,65.9l18.84,25.56h-11.4Z"/>
        <path class="cls-1" d="M197.65,44.69h11.46l14.1,33.53,14.1-33.53h11.46V91.46H238.36V64.65H238L227,91.46h-7.64l-11-26.81h-.33V91.46H197.65Z"/>
        <path class="cls-1" d="M270.05,73.34,253,44.69h11.79l10.47,18.9,10.47-18.9h11.8L280.45,73.34V91.46h-10.4Z"/>
        <path class="cls-2" d="M343.88,54.24h-10.8V91.46H322.67V54.24H311.86V44.69h32Z"/>
        <path class="cls-2" d="M348.42,44.69h10.41V91.46H348.42Z"/>
        <path class="cls-2" d="M365,44.69h11.47l14.09,33.53,14.1-33.53h11.46V91.46H405.73V64.65h-.33l-11,26.81h-7.64l-11-26.81h-.33V91.46H365Z"/>
        <path class="cls-2" d="M450,81.91v9.55H422.33V44.69h27.08v9.55H432.74v9h14v9.42h-14v9.29Z"/>
      </g>
    </g>
  </g>
</svg>
